<svg width="221" height="30" viewBox="0 0 221 30" fill="none" xmlns="http://www.w3.org/2000/svg">
<path d="M12.888 28.836L7.63201 19.296H6.15601V28.836H5.46873e-06V3.564H10.332C12.324 3.564 14.016 3.912 15.408 4.608C16.824 5.304 17.88 6.264 18.576 7.488C19.272 8.688 19.62 10.032 19.62 11.52C19.62 13.2 19.14 14.7 18.18 16.02C17.244 17.34 15.852 18.276 14.004 18.828L19.836 28.836H12.888ZM6.15601 14.94H9.97201C11.1 14.94 11.94 14.664 12.492 14.112C13.068 13.56 13.356 12.78 13.356 11.772C13.356 10.812 13.068 10.056 12.492 9.504C11.94 8.952 11.1 8.676 9.97201 8.676H6.15601V14.94ZM42.4204 18.468C42.4204 19.044 42.3844 19.644 42.3124 20.268H28.3804C28.4764 21.516 28.8724 22.476 29.5684 23.148C30.2884 23.796 31.1644 24.12 32.1964 24.12C33.7324 24.12 34.8004 23.472 35.4004 22.176H41.9524C41.6164 23.496 41.0044 24.684 40.1164 25.74C39.2524 26.796 38.1604 27.624 36.8404 28.224C35.5204 28.824 34.0444 29.124 32.4124 29.124C30.4444 29.124 28.6924 28.704 27.1564 27.864C25.6204 27.024 24.4204 25.824 23.5564 24.264C22.6924 22.704 22.2604 20.88 22.2604 18.792C22.2604 16.704 22.6804 14.88 23.5204 13.32C24.3844 11.76 25.5844 10.56 27.1204 9.72C28.6564 8.88 30.4204 8.46 32.4124 8.46C34.3564 8.46 36.0844 8.868 37.5964 9.684C39.1084 10.5 40.2844 11.664 41.1244 13.176C41.9884 14.688 42.4204 16.452 42.4204 18.468ZM36.1204 16.848C36.1204 15.792 35.7604 14.952 35.0404 14.328C34.3204 13.704 33.4204 13.392 32.3404 13.392C31.3084 13.392 30.4324 13.692 29.7124 14.292C29.0164 14.892 28.5844 15.744 28.4164 16.848H36.1204ZM44.444 18.792C44.444 16.704 44.864 14.88 45.704 13.32C46.568 11.76 47.756 10.56 49.268 9.72C50.804 8.88 52.556 8.46 54.524 8.46C57.044 8.46 59.144 9.12 60.824 10.44C62.528 11.76 63.644 13.62 64.172 16.02H57.62C57.068 14.484 56 13.716 54.416 13.716C53.288 13.716 52.388 14.16 51.716 15.048C51.044 15.912 50.708 17.16 50.708 18.792C50.708 20.424 51.044 21.684 51.716 22.572C52.388 23.436 53.288 23.868 54.416 23.868C56 23.868 57.068 23.1 57.62 21.564H64.172C63.644 23.916 62.528 25.764 60.824 27.108C59.12 28.452 57.02 29.124 54.524 29.124C52.556 29.124 50.804 28.704 49.268 27.864C47.756 27.024 46.568 25.824 45.704 24.264C44.864 22.704 44.444 20.88 44.444 18.792ZM70.5608 6.66C69.4808 6.66 68.5928 6.348 67.8968 5.724C67.2248 5.076 66.8888 4.284 66.8888 3.348C66.8888 2.388 67.2248 1.596 67.8968 0.971997C68.5928 0.323997 69.4808 -3.57628e-06 70.5608 -3.57628e-06C71.6168 -3.57628e-06 72.4808 0.323997 73.1528 0.971997C73.8488 1.596 74.1968 2.388 74.1968 3.348C74.1968 4.284 73.8488 5.076 73.1528 5.724C72.4808 6.348 71.6168 6.66 70.5608 6.66ZM73.6208 8.748V28.836H67.4648V8.748H73.6208ZM76.858 18.792C76.858 16.704 77.278 14.88 78.118 13.32C78.982 11.76 80.17 10.56 81.682 9.72C83.218 8.88 84.97 8.46 86.938 8.46C89.458 8.46 91.558 9.12 93.238 10.44C94.942 11.76 96.058 13.62 96.586 16.02H90.034C89.482 14.484 88.414 13.716 86.83 13.716C85.702 13.716 84.802 14.16 84.13 15.048C83.458 15.912 83.122 17.16 83.122 18.792C83.122 20.424 83.458 21.684 84.13 22.572C84.802 23.436 85.702 23.868 86.83 23.868C88.414 23.868 89.482 23.1 90.034 21.564H96.586C96.058 23.916 94.942 25.764 93.238 27.108C91.534 28.452 89.434 29.124 86.938 29.124C84.97 29.124 83.218 28.704 81.682 27.864C80.17 27.024 78.982 25.824 78.118 24.264C77.278 22.704 76.858 20.88 76.858 18.792ZM106.035 2.196V28.836H99.8789V2.196H106.035ZM109.272 18.756C109.272 16.692 109.656 14.88 110.424 13.32C111.216 11.76 112.284 10.56 113.628 9.72C114.972 8.88 116.472 8.46 118.128 8.46C119.544 8.46 120.78 8.748 121.836 9.324C122.916 9.9 123.744 10.656 124.32 11.592V8.748H130.476V28.836H124.32V25.992C123.72 26.928 122.88 27.684 121.8 28.26C120.744 28.836 119.508 29.124 118.092 29.124C116.46 29.124 114.972 28.704 113.628 27.864C112.284 27 111.216 25.788 110.424 24.228C109.656 22.644 109.272 20.82 109.272 18.756ZM124.32 18.792C124.32 17.256 123.888 16.044 123.024 15.156C122.184 14.268 121.152 13.824 119.928 13.824C118.704 13.824 117.66 14.268 116.796 15.156C115.956 16.02 115.536 17.22 115.536 18.756C115.536 20.292 115.956 21.516 116.796 22.428C117.66 23.316 118.704 23.76 119.928 23.76C121.152 23.76 122.184 23.316 123.024 22.428C123.888 21.54 124.32 20.328 124.32 18.792ZM153.11 3.564V8.496H146.414V28.836H140.258V8.496H133.562V3.564H153.11ZM175.135 18.468C175.135 19.044 175.099 19.644 175.027 20.268H161.095C161.191 21.516 161.587 22.476 162.283 23.148C163.003 23.796 163.879 24.12 164.911 24.12C166.447 24.12 167.515 23.472 168.115 22.176H174.667C174.331 23.496 173.719 24.684 172.831 25.74C171.967 26.796 170.875 27.624 169.555 28.224C168.235 28.824 166.759 29.124 165.127 29.124C163.159 29.124 161.407 28.704 159.871 27.864C158.335 27.024 157.135 25.824 156.271 24.264C155.407 22.704 154.975 20.88 154.975 18.792C154.975 16.704 155.395 14.88 156.235 13.32C157.099 11.76 158.299 10.56 159.835 9.72C161.371 8.88 163.135 8.46 165.127 8.46C167.071 8.46 168.799 8.868 170.311 9.684C171.823 10.5 172.999 11.664 173.839 13.176C174.703 14.688 175.135 16.452 175.135 18.468ZM168.835 16.848C168.835 15.792 168.475 14.952 167.755 14.328C167.035 13.704 166.135 13.392 165.055 13.392C164.023 13.392 163.147 13.692 162.427 14.292C161.731 14.892 161.299 15.744 161.131 16.848H168.835ZM177.159 18.792C177.159 16.704 177.579 14.88 178.419 13.32C179.283 11.76 180.471 10.56 181.983 9.72C183.519 8.88 185.271 8.46 187.239 8.46C189.759 8.46 191.859 9.12 193.539 10.44C195.243 11.76 196.359 13.62 196.887 16.02H190.335C189.783 14.484 188.715 13.716 187.131 13.716C186.003 13.716 185.103 14.16 184.431 15.048C183.759 15.912 183.423 17.16 183.423 18.792C183.423 20.424 183.759 21.684 184.431 22.572C185.103 23.436 186.003 23.868 187.131 23.868C188.715 23.868 189.783 23.1 190.335 21.564H196.887C196.359 23.916 195.243 25.764 193.539 27.108C191.835 28.452 189.735 29.124 187.239 29.124C185.271 29.124 183.519 28.704 181.983 27.864C180.471 27.024 179.283 25.824 178.419 24.264C177.579 22.704 177.159 20.88 177.159 18.792ZM212.528 8.532C214.832 8.532 216.68 9.3 218.072 10.836C219.464 12.348 220.16 14.436 220.16 17.1V28.836H214.04V17.928C214.04 16.584 213.692 15.54 212.996 14.796C212.3 14.052 211.364 13.68 210.188 13.68C209.012 13.68 208.076 14.052 207.38 14.796C206.684 15.54 206.336 16.584 206.336 17.928V28.836H200.18V2.196H206.336V11.448C206.96 10.56 207.812 9.852 208.892 9.324C209.972 8.796 211.184 8.532 212.528 8.532Z" fill="#1F2937"/>
</svg>
